<mxfile host="app.diagrams.net" modified="2023-10-11T03:27:26.241Z" agent="Mozilla/5.0 (Windows NT 10.0; Win64; x64) AppleWebKit/537.36 (KHTML, like Gecko) Chrome/117.0.0.0 Safari/537.36" etag="4kg64vZbmelzwUm8veN0" version="22.0.4" type="device">
  <diagram name="Page-1" id="87WC3KkdrnnZ19cBRQoI">
    <mxGraphModel dx="1658" dy="417" grid="1" gridSize="10" guides="1" tooltips="1" connect="1" arrows="1" fold="1" page="1" pageScale="1" pageWidth="850" pageHeight="1100" background="#ffffff" math="1" shadow="0">
      <root>
        <mxCell id="0" />
        <mxCell id="1" parent="0" />
        <mxCell id="owsfv4eC_n2FTrsO5rsx-1" value="Load all exogenous time series `\bb{b}`" style="rounded=1;whiteSpace=wrap;html=1;fillColor=#dae8fc;strokeColor=#6c8ebf;" parent="1" vertex="1">
          <mxGeometry x="-600" y="40" width="120" height="60" as="geometry" />
        </mxCell>
        <mxCell id="owsfv4eC_n2FTrsO5rsx-49" style="edgeStyle=orthogonalEdgeStyle;rounded=0;orthogonalLoop=1;jettySize=auto;html=1;entryX=0.5;entryY=0;entryDx=0;entryDy=0;dashed=1;dashPattern=8 8;exitX=0.934;exitY=0.891;exitDx=0;exitDy=0;exitPerimeter=0;" parent="1" source="owsfv4eC_n2FTrsO5rsx-53" target="orWpzuLxgXrnOWqfFbyt-2" edge="1">
          <mxGeometry relative="1" as="geometry">
            <mxPoint x="-480.0000000000001" y="190" as="sourcePoint" />
            <Array as="points">
              <mxPoint x="-483" y="214" />
              <mxPoint x="-483" y="210" />
              <mxPoint x="-230" y="210" />
              <mxPoint x="-230" y="234" />
            </Array>
            <mxPoint x="-235" y="224" as="targetPoint" />
          </mxGeometry>
        </mxCell>
        <mxCell id="owsfv4eC_n2FTrsO5rsx-52" value="`\hat{\bb{s}} = O/,\hat{\bb{b}}=\bb{b}_{\cc{I}^0},\hat{\cc{I}} = \cc{I}^0`" style="edgeLabel;html=1;align=center;verticalAlign=middle;resizable=0;points=[];" parent="owsfv4eC_n2FTrsO5rsx-49" vertex="1" connectable="0">
          <mxGeometry x="0.2036" y="1" relative="1" as="geometry">
            <mxPoint x="43" y="-15" as="offset" />
          </mxGeometry>
        </mxCell>
        <mxCell id="owsfv4eC_n2FTrsO5rsx-25" value="" style="edgeStyle=orthogonalEdgeStyle;rounded=0;orthogonalLoop=1;jettySize=auto;html=1;" parent="1" source="owsfv4eC_n2FTrsO5rsx-4" target="owsfv4eC_n2FTrsO5rsx-5" edge="1">
          <mxGeometry relative="1" as="geometry" />
        </mxCell>
        <mxCell id="owsfv4eC_n2FTrsO5rsx-4" value="Load scenario `\bb{s}` data" style="rounded=1;whiteSpace=wrap;html=1;fillColor=#dae8fc;strokeColor=#6c8ebf;" parent="1" vertex="1">
          <mxGeometry x="-600" y="270" width="120" height="60" as="geometry" />
        </mxCell>
        <mxCell id="owsfv4eC_n2FTrsO5rsx-5" value="" style="shape=line;html=1;strokeWidth=6;strokeColor=#ff0000;" parent="1" vertex="1">
          <mxGeometry x="-640" y="380" width="200" height="10" as="geometry" />
        </mxCell>
        <mxCell id="owsfv4eC_n2FTrsO5rsx-7" value="" style="ellipse;html=1;shape=startState;fillColor=#000000;strokeColor=#ff0000;" parent="1" vertex="1">
          <mxGeometry x="-401" y="55" width="30" height="30" as="geometry" />
        </mxCell>
        <mxCell id="owsfv4eC_n2FTrsO5rsx-8" value="" style="edgeStyle=orthogonalEdgeStyle;html=1;verticalAlign=bottom;endArrow=open;endSize=8;strokeColor=#ff0000;rounded=0;entryX=1;entryY=0.5;entryDx=0;entryDy=0;" parent="1" source="owsfv4eC_n2FTrsO5rsx-7" target="owsfv4eC_n2FTrsO5rsx-1" edge="1">
          <mxGeometry relative="1" as="geometry">
            <mxPoint x="-386" y="250" as="targetPoint" />
          </mxGeometry>
        </mxCell>
        <mxCell id="owsfv4eC_n2FTrsO5rsx-22" style="edgeStyle=orthogonalEdgeStyle;rounded=0;orthogonalLoop=1;jettySize=auto;html=1;" parent="1" source="owsfv4eC_n2FTrsO5rsx-17" target="owsfv4eC_n2FTrsO5rsx-19" edge="1">
          <mxGeometry relative="1" as="geometry" />
        </mxCell>
        <mxCell id="owsfv4eC_n2FTrsO5rsx-17" value="" style="shape=line;html=1;strokeWidth=6;strokeColor=#ff0000;rotation=-180;" parent="1" vertex="1">
          <mxGeometry x="-639" y="680" width="200" height="10" as="geometry" />
        </mxCell>
        <mxCell id="owsfv4eC_n2FTrsO5rsx-28" value="" style="edgeStyle=orthogonalEdgeStyle;rounded=0;orthogonalLoop=1;jettySize=auto;html=1;" parent="1" source="owsfv4eC_n2FTrsO5rsx-19" target="owsfv4eC_n2FTrsO5rsx-27" edge="1">
          <mxGeometry relative="1" as="geometry" />
        </mxCell>
        <mxCell id="owsfv4eC_n2FTrsO5rsx-19" value="Evaluate results `\bb{X}_{\cc{I}^k}^s` for scenario `\bb{s}` run in all time intervals `\cc{I}^1, \cdots,\cc{I}^K`" style="rounded=1;whiteSpace=wrap;html=1;fillColor=#dae8fc;strokeColor=#6c8ebf;" parent="1" vertex="1">
          <mxGeometry x="-599" y="740" width="120" height="60" as="geometry" />
        </mxCell>
        <mxCell id="owsfv4eC_n2FTrsO5rsx-27" value="" style="ellipse;html=1;shape=endState;fillColor=#000000;strokeColor=#ff0000;" parent="1" vertex="1">
          <mxGeometry x="-554" y="850" width="30" height="30" as="geometry" />
        </mxCell>
        <mxCell id="owsfv4eC_n2FTrsO5rsx-38" value="&lt;div style=&quot;border-color: var(--border-color);&quot;&gt;Transform data to&amp;nbsp; `T_{&quot;start&quot;}^k`&lt;/div&gt;&lt;span style=&quot;&quot;&gt;&lt;div style=&quot;text-align: left;&quot;&gt;&lt;span style=&quot;background-color: initial;&quot;&gt;- init from NPC `\bb{X}_{\cc{I}^0}`&lt;/span&gt;&lt;/div&gt;&lt;div style=&quot;text-align: left;&quot;&gt;&lt;span style=&quot;background-color: initial;&quot;&gt;- exog.series `\bb{b}`&lt;/span&gt;&lt;/div&gt;&lt;/span&gt;&lt;div style=&quot;border-color: var(--border-color); text-align: left;&quot;&gt;&lt;span style=&quot;border-color: var(--border-color); background-color: initial;&quot;&gt;- scenario shocks for `\bb{s}`&lt;/span&gt;&lt;/div&gt;" style="shape=mxgraph.uml25.action;html=1;align=center;verticalAlign=middle;absoluteArcSize=1;arcSize=10;dashed=0;spacingLeft=10;flipH=1;whiteSpace=wrap;fillColor=#ffe6cc;strokeColor=#d79b00;" parent="1" vertex="1">
          <mxGeometry x="-614" y="460" width="148" height="60" as="geometry" />
        </mxCell>
        <mxCell id="owsfv4eC_n2FTrsO5rsx-39" value="`\bb{X},k,\bb{b},\bb{s}`" style="text;verticalAlign=middle;align=right;html=1;" parent="owsfv4eC_n2FTrsO5rsx-38" vertex="1">
          <mxGeometry x="-80.72906666666667" width="80.72906666666667" height="60" as="geometry" />
        </mxCell>
        <mxCell id="owsfv4eC_n2FTrsO5rsx-42" style="edgeStyle=orthogonalEdgeStyle;rounded=0;orthogonalLoop=1;jettySize=auto;html=1;entryX=0.5;entryY=0.024;entryDx=0;entryDy=0;entryPerimeter=0;" parent="1" source="owsfv4eC_n2FTrsO5rsx-5" target="owsfv4eC_n2FTrsO5rsx-38" edge="1">
          <mxGeometry relative="1" as="geometry" />
        </mxCell>
        <mxCell id="owsfv4eC_n2FTrsO5rsx-51" style="edgeStyle=orthogonalEdgeStyle;rounded=0;orthogonalLoop=1;jettySize=auto;html=1;entryX=-0.001;entryY=0.177;entryDx=0;entryDy=0;exitX=0.614;exitY=-0.02;exitDx=0;exitDy=0;exitPerimeter=0;dashed=1;dashPattern=8 8;entryPerimeter=0;" parent="1" target="orWpzuLxgXrnOWqfFbyt-2" edge="1">
          <mxGeometry relative="1" as="geometry">
            <mxPoint x="-512.514" y="560.0000000000001" as="sourcePoint" />
            <mxPoint x="-244.73000000000002" y="242.45" as="targetPoint" />
            <Array as="points">
              <mxPoint x="-512" y="536" />
              <mxPoint x="-418" y="536" />
              <mxPoint x="-418" y="240" />
              <mxPoint x="-245" y="240" />
            </Array>
          </mxGeometry>
        </mxCell>
        <mxCell id="owsfv4eC_n2FTrsO5rsx-57" value="`\hat{\bb{s}} = \bb{s}_{\cc{I}^k},&lt;br&gt;\hat{\bb{b}}=\bb{b}_{\cc{I}^k},&lt;br&gt;\hat{\cc{I}}=\cc{I}^k`" style="edgeLabel;html=1;align=center;verticalAlign=middle;resizable=0;points=[];" parent="owsfv4eC_n2FTrsO5rsx-51" vertex="1" connectable="0">
          <mxGeometry x="0.3387" y="1" relative="1" as="geometry">
            <mxPoint x="18" y="84" as="offset" />
          </mxGeometry>
        </mxCell>
        <mxCell id="owsfv4eC_n2FTrsO5rsx-43" value="Calculate scenario `s` on `\cc{I}^k = [T_{&quot;start&quot;}^k,T_{&quot;end&quot;}^k]`" style="shape=mxgraph.uml25.action;html=1;align=center;verticalAlign=middle;absoluteArcSize=1;arcSize=10;dashed=0;spacingRight=10;whiteSpace=wrap;fillColor=#ffe6cc;strokeColor=#d79b00;" parent="1" vertex="1">
          <mxGeometry x="-604" y="560" width="149" height="60" as="geometry" />
        </mxCell>
        <mxCell id="owsfv4eC_n2FTrsO5rsx-44" value="`\bb{X}_{\cc{I}^k}^{s}`" style="text;verticalAlign=middle;align=left;html=1;" parent="owsfv4eC_n2FTrsO5rsx-43" vertex="1">
          <mxGeometry x="148.99999999999997" width="81.27272727272727" height="45" as="geometry" />
        </mxCell>
        <mxCell id="owsfv4eC_n2FTrsO5rsx-45" style="edgeStyle=orthogonalEdgeStyle;rounded=0;orthogonalLoop=1;jettySize=auto;html=1;entryX=0.428;entryY=0.033;entryDx=0;entryDy=0;entryPerimeter=0;" parent="1" source="owsfv4eC_n2FTrsO5rsx-38" target="owsfv4eC_n2FTrsO5rsx-43" edge="1">
          <mxGeometry relative="1" as="geometry" />
        </mxCell>
        <mxCell id="owsfv4eC_n2FTrsO5rsx-46" style="edgeStyle=orthogonalEdgeStyle;rounded=0;orthogonalLoop=1;jettySize=auto;html=1;exitX=0.432;exitY=1.04;exitDx=0;exitDy=0;exitPerimeter=0;entryX=0.507;entryY=0.191;entryDx=0;entryDy=0;entryPerimeter=0;" parent="1" source="owsfv4eC_n2FTrsO5rsx-43" target="owsfv4eC_n2FTrsO5rsx-17" edge="1">
          <mxGeometry relative="1" as="geometry">
            <mxPoint x="-537" y="620" as="sourcePoint" />
            <mxPoint x="-540" y="680" as="targetPoint" />
          </mxGeometry>
        </mxCell>
        <mxCell id="owsfv4eC_n2FTrsO5rsx-53" value="Run NPC scenario given `\bb{b}` on `\cc{I}^0 = [T_{&quot;start&quot;}^{1}, T_{&quot;end&quot;}^{K}]`" style="shape=mxgraph.uml25.action;html=1;align=center;verticalAlign=middle;absoluteArcSize=1;arcSize=10;dashed=0;spacingRight=10;whiteSpace=wrap;fillColor=#dae8fc;strokeColor=#6c8ebf;" parent="1" vertex="1">
          <mxGeometry x="-599" y="160" width="126" height="60" as="geometry" />
        </mxCell>
        <mxCell id="owsfv4eC_n2FTrsO5rsx-55" style="edgeStyle=orthogonalEdgeStyle;rounded=0;orthogonalLoop=1;jettySize=auto;html=1;entryX=0.539;entryY=0.015;entryDx=0;entryDy=0;entryPerimeter=0;" parent="1" source="owsfv4eC_n2FTrsO5rsx-53" target="owsfv4eC_n2FTrsO5rsx-4" edge="1">
          <mxGeometry relative="1" as="geometry" />
        </mxCell>
        <mxCell id="owsfv4eC_n2FTrsO5rsx-56" style="edgeStyle=orthogonalEdgeStyle;rounded=0;orthogonalLoop=1;jettySize=auto;html=1;entryX=0.471;entryY=0.017;entryDx=0;entryDy=0;entryPerimeter=0;" parent="1" source="owsfv4eC_n2FTrsO5rsx-1" target="owsfv4eC_n2FTrsO5rsx-53" edge="1">
          <mxGeometry relative="1" as="geometry" />
        </mxCell>
        <mxCell id="owsfv4eC_n2FTrsO5rsx-54" value="`\bb{X}^0`" style="text;verticalAlign=middle;align=left;html=1;" parent="1" vertex="1">
          <mxGeometry x="-469.73" y="175" width="68.72727272727273" height="45" as="geometry" />
        </mxCell>
        <mxCell id="owsfv4eC_n2FTrsO5rsx-60" style="edgeStyle=orthogonalEdgeStyle;rounded=0;orthogonalLoop=1;jettySize=auto;html=1;entryX=0.927;entryY=0.11;entryDx=0;entryDy=0;entryPerimeter=0;endArrow=classic;endFill=1;startArrow=none;startFill=0;dashed=1;dashPattern=8 8;exitX=1;exitY=0.675;exitDx=0;exitDy=0;exitPerimeter=0;" parent="1" source="orWpzuLxgXrnOWqfFbyt-3" target="owsfv4eC_n2FTrsO5rsx-53" edge="1">
          <mxGeometry relative="1" as="geometry">
            <mxPoint x="-220" y="344" as="sourcePoint" />
            <Array as="points">
              <mxPoint x="-130" y="340" />
              <mxPoint x="-130" y="167" />
            </Array>
          </mxGeometry>
        </mxCell>
        <mxCell id="owsfv4eC_n2FTrsO5rsx-61" value="`\bb{X}^0 = \hat{\bb{X}}`" style="edgeLabel;html=1;align=center;verticalAlign=middle;resizable=0;points=[];" parent="owsfv4eC_n2FTrsO5rsx-60" vertex="1" connectable="0">
          <mxGeometry x="0.1463" y="1" relative="1" as="geometry">
            <mxPoint x="-16" y="-8" as="offset" />
          </mxGeometry>
        </mxCell>
        <mxCell id="owsfv4eC_n2FTrsO5rsx-62" style="edgeStyle=orthogonalEdgeStyle;rounded=0;orthogonalLoop=1;jettySize=auto;html=1;entryX=0.914;entryY=0.107;entryDx=0;entryDy=0;entryPerimeter=0;dashed=1;dashPattern=8 8;exitX=0.5;exitY=1;exitDx=0;exitDy=0;" parent="1" source="orWpzuLxgXrnOWqfFbyt-3" target="owsfv4eC_n2FTrsO5rsx-43" edge="1">
          <mxGeometry relative="1" as="geometry">
            <Array as="points">
              <mxPoint x="-225" y="566" />
            </Array>
            <mxPoint x="-250" y="344" as="sourcePoint" />
          </mxGeometry>
        </mxCell>
        <mxCell id="owsfv4eC_n2FTrsO5rsx-63" value="`\bb{X}_{\cc{I}^k}^s = \hat{\bb{X}}`" style="edgeLabel;html=1;align=center;verticalAlign=middle;resizable=0;points=[];" parent="owsfv4eC_n2FTrsO5rsx-62" vertex="1" connectable="0">
          <mxGeometry x="0.223" relative="1" as="geometry">
            <mxPoint as="offset" />
          </mxGeometry>
        </mxCell>
        <mxCell id="orWpzuLxgXrnOWqfFbyt-1" value="Simulate scenario `\hat{s}` on horizon `\hat{\cc{I}}` assuming base `\hat{b}`" style="points=[[0.25,0,0],[0.5,0,0],[0.75,0,0],[1,0.25,0],[1,0.5,0],[1,0.75,0],[0.75,1,0],[0.5,1,0],[0.25,1,0],[0,0.75,0],[0,0.5,0],[0,0.25,0]];shape=mxgraph.bpmn.task;whiteSpace=wrap;rectStyle=rounded;size=10;html=1;container=1;expand=0;collapsible=0;taskMarker=abstract;isLoopSub=1;fillColor=#fff2cc;strokeColor=#d6b656;" vertex="1" parent="1">
          <mxGeometry x="-320" y="250.25" width="120" height="80" as="geometry" />
        </mxCell>
        <mxCell id="orWpzuLxgXrnOWqfFbyt-2" value="`\hat{\bb{s}}, \hat{\bb{b}},\hat{\cc{I}}`" style="fontStyle=0;labelPosition=right;verticalLabelPosition=middle;align=left;verticalAlign=middle;spacingLeft=2;html=1;whiteSpace=wrap;fillColor=#FFD966;fontColor=#663300;" vertex="1" parent="orWpzuLxgXrnOWqfFbyt-1">
          <mxGeometry x="75.26999999999998" y="-16.5" width="30" height="30" as="geometry" />
        </mxCell>
        <mxCell id="orWpzuLxgXrnOWqfFbyt-3" value="`\hat{\bb{X}}`" style="fontStyle=0;labelPosition=center;verticalLabelPosition=middle;align=center;verticalAlign=middle;spacingLeft=2;html=1;whiteSpace=wrap;fillColor=#FFD966;fontColor=#663300;" vertex="1" parent="1">
          <mxGeometry x="-240" y="319.75" width="30" height="30" as="geometry" />
        </mxCell>
      </root>
    </mxGraphModel>
  </diagram>
</mxfile>
